<svg width="150" height="150" viewBox="0 0 150 150" xmlns="http://www.w3.org/2000/svg">
  <!-- 柯基犬吃饭状态 - 像素风格 -->
  <!-- 背景 -->
  <rect x="30" y="70" width="90" height="40" fill="white" />
  
  <!-- 身体 -->
  <rect x="50" y="70" width="50" height="30" fill="#F0A042" /> <!-- 橙色身体 -->
  <rect x="40" y="75" width="10" height="20" fill="#F0A042" /> <!-- 前胸 -->
  <rect x="100" y="75" width="10" height="20" fill="#F0A042" /> <!-- 后臀 -->
  
  <!-- 黑色背部 -->
  <rect x="50" y="70" width="50" height="15" fill="#333333" />
  
  <!-- 腿部 -->
  <rect x="45" y="95" width="10" height="10" fill="white" /> <!-- 前腿 -->
  <rect x="95" y="95" width="10" height="10" fill="white" /> <!-- 后腿 -->
  <rect x="60" y="95" width="10" height="10" fill="white" /> <!-- 前腿 -->
  <rect x="80" y="95" width="10" height="10" fill="white" /> <!-- 后腿 -->
  
  <!-- 头部 - 低头吃饭姿势 -->
  <rect x="30" y="75" width="20" height="20" fill="#F0A042" /> <!-- 头部主体 -->
  <rect x="25" y="85" width="5" height="10" fill="#F0A042" /> <!-- 鼻子 -->
  
  <!-- 耳朵 -->
  <polygon points="30,75 40,65 45,75" fill="#F0A042" /> <!-- 右耳 -->
  <polygon points="35,75 45,60 50,75" fill="#F0A042" /> <!-- 左耳 -->
  <polygon points="32,75 40,67 43,75" fill="#FFC8A0" /> <!-- 右耳内部 -->
  <polygon points="37,75 45,63 48,75" fill="#FFC8A0" /> <!-- 左耳内部 -->
  
  <!-- 面部特征 -->
  <rect x="27" y="85" width="4" height="4" fill="black" /> <!-- 眼睛 -->
  <rect x="25" y="90" width="5" height="3" fill="black" /> <!-- 鼻子 -->
  <rect x="30" y="90" width="10" height="5" fill="white" /> <!-- 白色面部 -->
  
  <!-- 嘴巴 - 吃东西 -->
  <rect x="25" y="95" width="15" height="5" fill="#FF6B6B" /> <!-- 张开的嘴 -->
  
  <!-- 食物碗 -->
  <rect x="15" y="95" width="20" height="5" fill="#8B4513" /> <!-- 碗 -->
  <rect x="17" y="93" width="16" height="2" fill="#DAA520" /> <!-- 食物 -->
  
  <!-- 尾巴 - 摇动状态 -->
  <rect x="110" y="70" width="10" height="5" fill="#F0A042" />
</svg>