<svg width="150" height="150" viewBox="0 0 150 150" xmlns="http://www.w3.org/2000/svg">
  <!-- 柯基犬玩耍状态 - 像素风格 -->
  <!-- 背景 -->
  <rect x="30" y="70" width="90" height="40" fill="white" />
  
  <!-- 身体 - 玩耍姿势（稍微抬起） -->
  <rect x="50" y="65" width="50" height="30" fill="#F0A042" /> <!-- 橙色身体 -->
  <rect x="40" y="70" width="10" height="20" fill="#F0A042" /> <!-- 前胸 -->
  <rect x="100" y="70" width="10" height="20" fill="#F0A042" /> <!-- 后臀 -->
  
  <!-- 黑色背部 -->
  <rect x="50" y="65" width="50" height="15" fill="#333333" />
  
  <!-- 腿部 - 跳跃姿势 -->
  <rect x="45" y="90" width="10" height="15" fill="white" /> <!-- 前腿 -->
  <rect x="95" y="90" width="10" height="15" fill="white" /> <!-- 后腿 -->
  <rect x="60" y="90" width="10" height="15" fill="white" /> <!-- 前腿 -->
  <rect x="80" y="90" width="10" height="15" fill="white" /> <!-- 后腿 -->
  
  <!-- 头部 - 兴奋表情 -->
  <rect x="30" y="65" width="20" height="20" fill="#F0A042" /> <!-- 头部主体 -->
  <rect x="25" y="70" width="5" height="10" fill="#F0A042" /> <!-- 鼻子 -->
  
  <!-- 耳朵 - 竖起 -->
  <polygon points="30,65 40,50 45,65" fill="#F0A042" /> <!-- 右耳 -->
  <polygon points="35,65 45,45 50,65" fill="#F0A042" /> <!-- 左耳 -->
  <polygon points="32,65 40,52 43,65" fill="#FFC8A0" /> <!-- 右耳内部 -->
  <polygon points="37,65 45,48 48,65" fill="#FFC8A0" /> <!-- 左耳内部 -->
  
  <!-- 面部特征 -->
  <rect x="27" y="75" width="4" height="4" fill="black" /> <!-- 眼睛 -->
  <rect x="25" y="80" width="5" height="3" fill="black" /> <!-- 鼻子 -->
  <rect x="30" y="80" width="10" height="5" fill="white" /> <!-- 白色面部 -->
  
  <!-- 嘴巴 - 开心 -->
  <rect x="30" y="85" width="10" height="5" fill="#FF6B6B" /> <!-- 舌头伸出 -->
  
  <!-- 尾巴 - 兴奋摇摆 -->
  <polygon points="110,65 125,60 120,75" fill="#F0A042" />
  
  <!-- 玩具 - 小球 -->
  <circle cx="70" cy="110" r="8" fill="#FF5555" />
</svg>