<svg width="150" height="150" viewBox="0 0 150 150" xmlns="http://www.w3.org/2000/svg">
  <!-- 柯基犬闲置状态 - 像素风格 -->
  <!-- 背景 -->
  <rect x="30" y="70" width="90" height="40" fill="white" />
  
  <!-- 身体 -->
  <rect x="50" y="70" width="50" height="30" fill="#F0A042" /> <!-- 橙色身体 -->
  <rect x="40" y="75" width="10" height="20" fill="#F0A042" /> <!-- 前胸 -->
  <rect x="100" y="75" width="10" height="20" fill="#F0A042" /> <!-- 后臀 -->
  
  <!-- 黑色背部 -->
  <rect x="50" y="70" width="50" height="15" fill="#333333" />
  
  <!-- 腿部 -->
  <rect x="45" y="95" width="10" height="10" fill="white" /> <!-- 前腿 -->
  <rect x="95" y="95" width="10" height="10" fill="white" /> <!-- 后腿 -->
  <rect x="60" y="95" width="10" height="10" fill="white" /> <!-- 前腿 -->
  <rect x="80" y="95" width="10" height="10" fill="white" /> <!-- 后腿 -->
  
  <!-- 头部 -->
  <rect x="30" y="70" width="20" height="20" fill="#F0A042" /> <!-- 头部主体 -->
  <rect x="25" y="75" width="5" height="10" fill="#F0A042" /> <!-- 鼻子 -->
  
  <!-- 耳朵 -->
  <polygon points="30,70 40,60 45,70" fill="#F0A042" /> <!-- 右耳 -->
  <polygon points="35,70 45,55 50,70" fill="#F0A042" /> <!-- 左耳 -->
  <polygon points="32,70 40,62 43,70" fill="#FFC8A0" /> <!-- 右耳内部 -->
  <polygon points="37,70 45,58 48,70" fill="#FFC8A0" /> <!-- 左耳内部 -->
  
  <!-- 面部特征 -->
  <rect x="27" y="80" width="4" height="4" fill="black" /> <!-- 眼睛 -->
  <rect x="25" y="85" width="5" height="3" fill="black" /> <!-- 鼻子 -->
  <rect x="30" y="85" width="10" height="5" fill="white" /> <!-- 白色面部 -->
  
  <!-- 嘴巴 - 微笑 -->
  <rect x="30" y="90" width="10" height="2" fill="#FF6B6B" /> <!-- 舌头 -->
  
  <!-- 尾巴 -->
  <rect x="110" y="75" width="10" height="5" fill="#F0A042" />
</svg>