<?xml version="1.0" encoding="UTF-8"?>
<svg width="800" height="600" version="1.1" xmlns="http://www.w3.org/2000/svg">
  <!-- 地板 -->
  <rect x="0" y="450" width="800" height="150" fill="#e6c699"/>
  <rect x="0" y="450" width="800" height="10" fill="#d4b37f"/>
  
  <!-- 墙壁 -->
  <rect x="0" y="0" width="800" height="450" fill="#f5f0e6"/>
  
  <!-- 地毯 -->
  <rect x="150" y="400" width="500" height="300" fill="#e6e6e6" opacity="0.8"/>
  <rect x="170" y="420" width="460" height="260" fill="#d4d4d4" opacity="0.6"/>
  
  <!-- 窗户 -->
  <rect x="50" y="50" width="300" height="250" fill="#87ceeb"/>
  <rect x="60" y="60" width="280" height="230" fill="#b7e4f7"/>
  <line x1="200" y1="50" x2="200" y2="300" stroke="#deb887" stroke-width="10"/>
  <line x1="50" y1="175" x2="350" y2="175" stroke="#deb887" stroke-width="10"/>
  
  <!-- 沙发 -->
  <rect x="100" y="350" width="250" height="100" fill="#beige"/>
  <rect x="90" y="320" width="270" height="40" fill="#d4d4d4"/>
  <rect x="400" y="350" width="250" height="100" fill="#beige"/>
  <rect x="390" y="320" width="270" height="40" fill="#d4d4d4"/>
  
  <!-- 装饰画 -->
  <rect x="450" y="80" width="120" height="150" fill="#d4d4d4"/>
  <rect x="460" y="90" width="100" height="130" fill="#f0f8ff"/>
  
  <!-- 吊灯 -->
  <path d="M380 0 L420 100 L340 100 Z" fill="#ffd700"/>
  <circle cx="380" cy="80" r="30" fill="#fff5e6"/>
  
  <!-- 边框装饰 -->
  <rect x="0" y="0" width="800" height="600" fill="none" stroke="#deb887" stroke-width="20"/>
</svg>